<?xml version="1.0" encoding="UTF-8"?>
<svg version="1.1" xmlns="http://www.w3.org/2000/svg" width="240" height="241">
<path d="M0 0 C1.53526764 1.31668716 3.05630253 2.6501552 4.5625 4 C5.39007813 4.70898438 6.21765625 5.41796875 7.0703125 6.1484375 C30.09164931 26.21290537 43.61444408 54.00082342 45.73535156 84.484375 C47.23025808 116.84470422 36.12660446 145.66624521 15.3125 170.1875 C-4.13970827 191.00717458 -32.56572599 204.36502364 -61.03125 205.3359375 C-76.68140933 205.53924467 -91.73658568 204.92652874 -106.57421875 199.55078125 C-107.55781372 199.19536255 -107.55781372 199.19536255 -108.5612793 198.83276367 C-110.28605429 198.18212962 -111.98831431 197.47261417 -113.6875 196.7578125 C-124.53670439 194.56536911 -137.05319432 199.83931269 -147.5949707 202.69189453 C-167.93591387 208.1704076 -167.93591387 208.1704076 -175.9375 204.3125 C-179.05841799 201.42565086 -181.09023158 198.79665051 -181.90844727 194.56347656 C-182.0324631 184.50625208 -179.13585826 175.32268689 -176.375 165.75 C-175.4085185 162.39519709 -174.46226886 159.03559058 -173.52734375 155.671875 C-173.19149513 154.54347198 -173.19149513 154.54347198 -172.84886169 153.39227295 C-171.06296878 146.95919706 -171.27497375 141.30818466 -173.7421875 134.9921875 C-173.99460205 134.32268066 -174.2470166 133.65317383 -174.50708008 132.96337891 C-174.77286865 132.27421387 -175.03865723 131.58504883 -175.3125 130.875 C-178.08007156 123.35677432 -180.11904755 115.92048099 -181.4375 108 C-181.65212891 106.72576172 -181.65212891 106.72576172 -181.87109375 105.42578125 C-185.72054583 75.15292974 -176.06088522 45.33082115 -158.3203125 21.109375 C-139.23388896 -3.36039877 -111.95067749 -17.39621573 -81.4375 -21.58203125 C-53.27715393 -24.86321597 -22.49689268 -17.61847134 0 0 Z " fill="#41C352" transform="translate(188.4375,28)"/>
<path d="M0 0 C1.53526764 1.31668716 3.05630253 2.6501552 4.5625 4 C5.39007813 4.70898438 6.21765625 5.41796875 7.0703125 6.1484375 C30.09164931 26.21290537 43.61444408 54.00082342 45.73535156 84.484375 C47.23025808 116.84470422 36.12660446 145.66624521 15.3125 170.1875 C-4.13970827 191.00717458 -32.56572599 204.36502364 -61.03125 205.3359375 C-76.68140933 205.53924467 -91.73658568 204.92652874 -106.57421875 199.55078125 C-107.55781372 199.19536255 -107.55781372 199.19536255 -108.5612793 198.83276367 C-110.28605429 198.18212962 -111.98831431 197.47261417 -113.6875 196.7578125 C-124.53670439 194.56536911 -137.05319432 199.83931269 -147.5949707 202.69189453 C-167.93591387 208.1704076 -167.93591387 208.1704076 -175.9375 204.3125 C-179.05841799 201.42565086 -181.09023158 198.79665051 -181.90844727 194.56347656 C-182.0324631 184.50625208 -179.13585826 175.32268689 -176.375 165.75 C-175.4085185 162.39519709 -174.46226886 159.03559058 -173.52734375 155.671875 C-173.19149513 154.54347198 -173.19149513 154.54347198 -172.84886169 153.39227295 C-171.06296878 146.95919706 -171.27497375 141.30818466 -173.7421875 134.9921875 C-173.99460205 134.32268066 -174.2470166 133.65317383 -174.50708008 132.96337891 C-174.77286865 132.27421387 -175.03865723 131.58504883 -175.3125 130.875 C-178.08007156 123.35677432 -180.11904755 115.92048099 -181.4375 108 C-181.65212891 106.72576172 -181.65212891 106.72576172 -181.87109375 105.42578125 C-185.72054583 75.15292974 -176.06088522 45.33082115 -158.3203125 21.109375 C-139.23388896 -3.36039877 -111.95067749 -17.39621573 -81.4375 -21.58203125 C-53.27715393 -24.86321597 -22.49689268 -17.61847134 0 0 Z M-129.4375 31 C-130.06011719 31.61101563 -130.68273437 32.22203125 -131.32421875 32.8515625 C-136.92376618 38.76569124 -140.65124564 45.85831235 -144.4375 53 C-144.85128906 53.76054688 -145.26507813 54.52109375 -145.69140625 55.3046875 C-154.96380392 73.99493221 -154.204947 95.15922754 -148.3359375 114.66015625 C-146.38606247 120.44059223 -144.24087341 125.43299208 -140.9375 130.5625 C-138.45774186 134.91797262 -138.20540401 137.36330211 -139.3125 142.25 C-139.99230192 144.50878407 -140.70285436 146.75845324 -141.4375 149 C-142.00977102 151.03108895 -142.55428695 153.06798324 -143.09228516 155.10839844 C-143.60186076 157.03740598 -144.13438376 158.96030777 -144.66796875 160.8828125 C-145.55733598 163.95029883 -145.55733598 163.95029883 -145.4375 167 C-140.0899493 166.19486315 -134.85843802 165.15040236 -129.65234375 163.68359375 C-128.81421143 163.44922607 -127.9760791 163.2148584 -127.11254883 162.97338867 C-125.43012448 162.49612459 -123.75138348 162.00565324 -122.0769043 161.5012207 C-116.14894085 159.82583421 -116.14894085 159.82583421 -112.8046875 160.64453125 C-112.02351563 161.09183594 -111.24234375 161.53914062 -110.4375 162 C-109.344375 162.53496094 -108.25125 163.06992188 -107.125 163.62109375 C-106.53082275 163.9154834 -105.93664551 164.20987305 -105.32446289 164.51318359 C-97.85280337 168.17312705 -90.68117211 170.58258733 -82.4375 172 C-80.519375 172.3403125 -80.519375 172.3403125 -78.5625 172.6875 C-77.18987487 172.81931786 -75.81405229 172.918886 -74.4375 173 C-72.84228516 173.09667969 -72.84228516 173.09667969 -71.21484375 173.1953125 C-49.55775231 173.8785015 -27.80880193 165.91864118 -11.75 151.3125 C4.65933659 135.80631858 15.32469524 114.51195747 16.10375977 91.76049805 C16.29022171 66.97820578 7.46133091 46.39583419 -9.5625 28.375 C-25.67016346 12.80055575 -46.36925877 4.81678742 -68.6875 4.6875 C-92.73952506 5.27701042 -112.41246279 14.00563854 -129.4375 31 Z " fill="#F8F9F9" transform="translate(188.4375,28)"/>
<path d="M0 0 C1.53526764 1.31668716 3.05630253 2.6501552 4.5625 4 C5.39007813 4.70898438 6.21765625 5.41796875 7.0703125 6.1484375 C30.09164931 26.21290537 43.61444408 54.00082342 45.73535156 84.484375 C47.23025808 116.84470422 36.12660446 145.66624521 15.3125 170.1875 C-4.13970827 191.00717458 -32.56572599 204.36502364 -61.03125 205.3359375 C-76.68140933 205.53924467 -91.73658568 204.92652874 -106.57421875 199.55078125 C-107.55781372 199.19536255 -107.55781372 199.19536255 -108.5612793 198.83276367 C-110.28605429 198.18212962 -111.98831431 197.47261417 -113.6875 196.7578125 C-124.53670439 194.56536911 -137.05319432 199.83931269 -147.5949707 202.69189453 C-167.93591387 208.1704076 -167.93591387 208.1704076 -175.9375 204.3125 C-179.05841799 201.42565086 -181.09023158 198.79665051 -181.90844727 194.56347656 C-182.0324631 184.50625208 -179.13585826 175.32268689 -176.375 165.75 C-175.4085185 162.39519709 -174.46226886 159.03559058 -173.52734375 155.671875 C-173.19149513 154.54347198 -173.19149513 154.54347198 -172.84886169 153.39227295 C-171.06296878 146.95919706 -171.27497375 141.30818466 -173.7421875 134.9921875 C-173.99460205 134.32268066 -174.2470166 133.65317383 -174.50708008 132.96337891 C-174.77286865 132.27421387 -175.03865723 131.58504883 -175.3125 130.875 C-178.08007156 123.35677432 -180.11904755 115.92048099 -181.4375 108 C-181.65212891 106.72576172 -181.65212891 106.72576172 -181.87109375 105.42578125 C-185.72054583 75.15292974 -176.06088522 45.33082115 -158.3203125 21.109375 C-139.23388896 -3.36039877 -111.95067749 -17.39621573 -81.4375 -21.58203125 C-53.27715393 -24.86321597 -22.49689268 -17.61847134 0 0 Z M-119.4375 1 C-120.42621094 1.54527344 -121.41492188 2.09054688 -122.43359375 2.65234375 C-144.12830195 15.53062481 -159.941992 38.17328639 -166.6953125 62.296875 C-172.65029732 85.80537688 -171.25800156 113.69209781 -158.6875 134.9609375 C-155.95019514 141.61600995 -159.2888479 149.68274661 -161.16015625 156.3359375 C-161.42509384 157.29650055 -161.69003143 158.2570636 -161.96299744 159.24673462 C-162.8034058 162.29097511 -163.65122194 165.33308351 -164.5 168.375 C-165.35127271 171.43862121 -166.20093497 174.50266911 -167.04771423 177.5675354 C-167.57346617 179.46918792 -168.10199939 181.3700741 -168.63356018 183.27011108 C-168.87058151 184.12505157 -169.10760284 184.97999207 -169.35180664 185.86083984 C-169.56196915 186.61392426 -169.77213165 187.36700867 -169.98866272 188.14291382 C-170.51580832 190.00557851 -170.51580832 190.00557851 -170.4375 192 C-161.6895989 189.99347968 -152.97018579 187.91518118 -144.296875 185.60546875 C-143.54643921 185.40680206 -142.79600342 185.20813538 -142.02282715 185.00344849 C-138.95836402 184.19173791 -135.89432848 183.37898466 -132.83447266 182.55004883 C-130.55360085 181.93366755 -128.26947467 181.3309565 -125.984375 180.73046875 C-125.29792908 180.54099167 -124.61148315 180.35151459 -123.90423584 180.15629578 C-117.60115458 178.52211079 -113.8339382 179.70161129 -108.0625 182.3125 C-83.41817033 192.83514076 -56.65413673 192.70754689 -31.625 183.6875 C-20.77069231 179.20360463 -11.31248686 173.68371345 -2.4375 166 C-1.68984375 165.39671875 -0.9421875 164.7934375 -0.171875 164.171875 C18.05793806 149.00161098 29.4819972 125.27616607 32.5625 102 C34.71475009 71.50781291 27.7024463 44.49780755 7.5625 21 C-10.40127548 0.82045672 -35.14915009 -10.89675377 -62 -12.75 C-82.60722005 -13.86384578 -101.46713708 -9.02052108 -119.4375 1 Z " fill="#000000" transform="translate(188.4375,28)"/>
<path d="M0 0 C3.65018607 1.11838408 5.36720707 3.32243696 7.15771484 6.63256836 C8.30552917 9.04604609 9.35754252 11.48455214 10.390625 13.94921875 C10.9484668 15.19348633 10.9484668 15.19348633 11.51757812 16.46289062 C13.67982263 21.56449918 14.69928862 25.11655403 13.078125 30.63671875 C11.6438179 32.87733903 10.03410683 34.6717804 8.2578125 36.64453125 C6.85860644 38.5964735 6.85860644 38.5964735 7.171875 41.04296875 C11.80688265 54.3086803 24.34164326 63.17422564 36.078125 69.63671875 C39.52377469 71.27626505 42.26478207 72.35360312 46.078125 71.63671875 C48.51076857 69.25816549 48.51076857 69.25816549 50.640625 66.19921875 C54.57428772 60.86116344 54.57428772 60.86116344 56.87573242 59.8359375 C59.96698058 59.55631678 61.73039745 60.5758979 64.5 61.9453125 C65.52480469 62.44482422 66.54960937 62.94433594 67.60546875 63.45898438 C68.66894531 63.99201172 69.73242188 64.52503906 70.828125 65.07421875 C72.44654297 65.86795898 72.44654297 65.86795898 74.09765625 66.67773438 C76.76320472 67.98691969 79.42284498 69.30686284 82.078125 70.63671875 C82.10702816 72.05977447 82.12751804 73.48300247 82.14453125 74.90625 C82.16302124 76.09504761 82.16302124 76.09504761 82.18188477 77.30786133 C81.94443457 82.63736116 79.69890682 86.34797286 75.890625 89.88671875 C68.8346714 95.39596018 61.89615085 96.47935648 53.078125 95.63671875 C28.31445042 91.8136758 7.64543012 75.87490314 -6.91845703 56.1472168 C-15.58924011 43.97648713 -21.43708005 32.92971858 -19.921875 17.63671875 C-17.09753743 8.08148322 -10.51977426 -0.24596594 0 0 Z " fill="#FDFEFD" transform="translate(88.921875,69.36328125)"/>
</svg>
